<svg xmlns="http://www.w3.org/2000/svg" viewBox="0 0 32 32" width="32" height="32">
  <defs>
    <linearGradient id="brainGradient" x1="0%" y1="0%" x2="100%" y2="100%">
      <stop offset="0%" style="stop-color:#667eea;stop-opacity:1" />
      <stop offset="100%" style="stop-color:#764ba2;stop-opacity:1" />
    </linearGradient>
  </defs>

  <!-- Brain outline -->
  <path d="M16 4C12 4 9 7 9 11c0 1 0.2 2 0.6 2.8C8.6 14.4 8 15.6 8 17c0 2.2 1.8 4 4 4h8c2.2 0 4-1.8 4-4 0-1.4-0.6-2.6-1.6-3.2 0.4-0.8 0.6-1.8 0.6-2.8 0-4-3-7-7-7z"
        fill="url(#brainGradient)"
        stroke="#4a5568"
        stroke-width="1"/>

  <!-- Brain divisions -->
  <path d="M16 6v15" stroke="#4a5568" stroke-width="0.8" opacity="0.6"/>
  <path d="M12 9c2 0 4 1 4 3" stroke="#4a5568" stroke-width="0.6" opacity="0.6" fill="none"/>
  <path d="M20 12c-2 0-4 1-4 3" stroke="#4a5568" stroke-width="0.6" opacity="0.6" fill="none"/>

  <!-- Assessment dots -->
  <circle cx="13" cy="26" r="1.5" fill="#667eea"/>
  <circle cx="16" cy="26" r="1.5" fill="#667eea"/>
  <circle cx="19" cy="26" r="1.5" fill="#667eea"/>
</svg>